<mxfile host="app.diagrams.net" modified="2023-03-23T07:03:58.879Z" agent="5.0 (Windows NT 10.0; Win64; x64) AppleWebKit/537.36 (KHTML, like Gecko) Chrome/111.0.0.0 Safari/537.36" etag="iysnUYQ8J3liqM6y5IQN" version="21.0.10" type="github">
  <diagram id="prtHgNgQTEPvFCAcTncT" name="Page-1">
    <mxGraphModel dx="1969" dy="2068" grid="1" gridSize="10" guides="1" tooltips="1" connect="1" arrows="1" fold="1" page="1" pageScale="1" pageWidth="827" pageHeight="1169" math="0" shadow="0">
      <root>
        <mxCell id="0" />
        <mxCell id="1" parent="0" />
        <mxCell id="bekIhtNGK7He6cLQGkpx-21" value="&lt;h2&gt;&lt;b&gt;用户&lt;/b&gt;&lt;/h2&gt;" style="rounded=0;whiteSpace=wrap;html=1;" vertex="1" parent="1">
          <mxGeometry x="180" y="70" width="120" height="670" as="geometry" />
        </mxCell>
        <mxCell id="bekIhtNGK7He6cLQGkpx-22" value="&lt;h1&gt;&lt;font style=&quot;font-size: 24px;&quot;&gt;用户中心&lt;/font&gt;&lt;/h1&gt;" style="rounded=0;whiteSpace=wrap;html=1;" vertex="1" parent="1">
          <mxGeometry x="482.5" y="-50" width="400" height="90" as="geometry" />
        </mxCell>
        <mxCell id="bekIhtNGK7He6cLQGkpx-25" value="" style="endArrow=classic;html=1;rounded=0;exitX=1.042;exitY=0.169;exitDx=0;exitDy=0;exitPerimeter=0;" edge="1" parent="1" source="bekIhtNGK7He6cLQGkpx-21">
          <mxGeometry width="50" height="50" relative="1" as="geometry">
            <mxPoint x="240" y="180" as="sourcePoint" />
            <mxPoint x="480" y="183" as="targetPoint" />
            <Array as="points" />
          </mxGeometry>
        </mxCell>
        <mxCell id="bekIhtNGK7He6cLQGkpx-33" value="&lt;h2&gt;微信开放平台&lt;/h2&gt;" style="rounded=0;whiteSpace=wrap;html=1;" vertex="1" parent="1">
          <mxGeometry x="1030" y="70" width="120" height="670" as="geometry" />
        </mxCell>
        <mxCell id="bekIhtNGK7He6cLQGkpx-38" value="&lt;h2&gt;前端&lt;/h2&gt;" style="rounded=0;whiteSpace=wrap;html=1;" vertex="1" parent="1">
          <mxGeometry x="482.5" y="70" width="120" height="670" as="geometry" />
        </mxCell>
        <mxCell id="bekIhtNGK7He6cLQGkpx-39" value="&lt;h2&gt;后端&lt;/h2&gt;" style="rounded=0;whiteSpace=wrap;html=1;" vertex="1" parent="1">
          <mxGeometry x="762.5" y="80" width="120" height="660" as="geometry" />
        </mxCell>
        <mxCell id="bekIhtNGK7He6cLQGkpx-42" value="进入登录页" style="text;html=1;strokeColor=none;fillColor=none;align=center;verticalAlign=middle;whiteSpace=wrap;rounded=0;" vertex="1" parent="1">
          <mxGeometry x="354" y="140" width="86" height="30" as="geometry" />
        </mxCell>
        <mxCell id="bekIhtNGK7He6cLQGkpx-43" value="" style="endArrow=classic;html=1;rounded=0;" edge="1" parent="1">
          <mxGeometry width="50" height="50" relative="1" as="geometry">
            <mxPoint x="600" y="220" as="sourcePoint" />
            <mxPoint x="1030" y="220" as="targetPoint" />
          </mxGeometry>
        </mxCell>
        <mxCell id="bekIhtNGK7He6cLQGkpx-46" value="用户使用微信扫码授权登录" style="text;html=1;strokeColor=none;fillColor=none;align=center;verticalAlign=middle;whiteSpace=wrap;rounded=0;" vertex="1" parent="1">
          <mxGeometry x="602.5" y="257" width="160" height="30" as="geometry" />
        </mxCell>
        <mxCell id="bekIhtNGK7He6cLQGkpx-48" value="通过JS将code返回给网站" style="text;html=1;strokeColor=none;fillColor=none;align=center;verticalAlign=middle;whiteSpace=wrap;rounded=0;" vertex="1" parent="1">
          <mxGeometry x="880" y="330" width="150" height="30" as="geometry" />
        </mxCell>
        <mxCell id="bekIhtNGK7He6cLQGkpx-51" value="" style="endArrow=classic;html=1;rounded=0;entryX=1.004;entryY=0.463;entryDx=0;entryDy=0;entryPerimeter=0;" edge="1" parent="1">
          <mxGeometry width="50" height="50" relative="1" as="geometry">
            <mxPoint x="1028" y="471" as="sourcePoint" />
            <mxPoint x="602.98" y="471.21000000000004" as="targetPoint" />
            <Array as="points" />
          </mxGeometry>
        </mxCell>
        <mxCell id="bekIhtNGK7He6cLQGkpx-52" value="重定向到网站&lt;br&gt;携带授权code" style="text;html=1;strokeColor=none;fillColor=none;align=center;verticalAlign=middle;whiteSpace=wrap;rounded=0;" vertex="1" parent="1">
          <mxGeometry x="892.5" y="440" width="132.5" height="30" as="geometry" />
        </mxCell>
        <mxCell id="bekIhtNGK7He6cLQGkpx-53" value="" style="endArrow=classic;html=1;rounded=0;" edge="1" parent="1">
          <mxGeometry width="50" height="50" relative="1" as="geometry">
            <mxPoint x="300" y="293" as="sourcePoint" />
            <mxPoint x="1030" y="293" as="targetPoint" />
          </mxGeometry>
        </mxCell>
        <mxCell id="bekIhtNGK7He6cLQGkpx-54" value="" style="endArrow=classic;html=1;rounded=0;exitX=0;exitY=0.439;exitDx=0;exitDy=0;exitPerimeter=0;" edge="1" parent="1" source="bekIhtNGK7He6cLQGkpx-33">
          <mxGeometry width="50" height="50" relative="1" as="geometry">
            <mxPoint x="1030" y="320" as="sourcePoint" />
            <mxPoint x="610" y="364" as="targetPoint" />
          </mxGeometry>
        </mxCell>
        <mxCell id="bekIhtNGK7He6cLQGkpx-55" value="&#xa;&lt;span style=&quot;color: rgb(34, 34, 34); font-family: -apple-system, BlinkMacSystemFont, &amp;quot;SF UI Text&amp;quot;, &amp;quot;Helvetica Neue&amp;quot;, &amp;quot;PingFang SC&amp;quot;, &amp;quot;Hiragino Sans GB&amp;quot;, &amp;quot;Microsoft YaHei UI&amp;quot;, &amp;quot;Microsoft YaHei&amp;quot;, Arial, sans-serif; font-size: 14px; font-style: normal; font-variant-ligatures: normal; font-variant-caps: normal; font-weight: 400; letter-spacing: normal; orphans: 2; text-align: start; text-indent: 0px; text-transform: none; widows: 2; word-spacing: 0px; -webkit-text-stroke-width: 0px; text-decoration-thickness: initial; text-decoration-style: initial; text-decoration-color: initial; float: none; display: inline !important;&quot;&gt;网站内嵌二维码微信登录&lt;/span&gt;&#xa;&#xa;" style="text;html=1;strokeColor=none;fillColor=none;align=center;verticalAlign=middle;whiteSpace=wrap;rounded=0;" vertex="1" parent="1">
          <mxGeometry x="567.5" y="197" width="230" height="30" as="geometry" />
        </mxCell>
        <mxCell id="bekIhtNGK7He6cLQGkpx-56" value="" style="endArrow=classic;html=1;rounded=0;exitX=0.1;exitY=1.067;exitDx=0;exitDy=0;exitPerimeter=0;entryX=1;entryY=1;entryDx=0;entryDy=0;" edge="1" parent="1" source="bekIhtNGK7He6cLQGkpx-57" target="bekIhtNGK7He6cLQGkpx-57">
          <mxGeometry width="50" height="50" relative="1" as="geometry">
            <mxPoint x="580" y="440" as="sourcePoint" />
            <mxPoint x="780" y="440" as="targetPoint" />
          </mxGeometry>
        </mxCell>
        <mxCell id="bekIhtNGK7He6cLQGkpx-57" value="通过code，&lt;br&gt;获取access-token" style="text;html=1;strokeColor=none;fillColor=none;align=center;verticalAlign=middle;whiteSpace=wrap;rounded=0;" vertex="1" parent="1">
          <mxGeometry x="592.5" y="520" width="170" height="30" as="geometry" />
        </mxCell>
        <mxCell id="bekIhtNGK7He6cLQGkpx-58" value="" style="endArrow=classic;html=1;rounded=0;exitX=0.129;exitY=1;exitDx=0;exitDy=0;exitPerimeter=0;entryX=1;entryY=1;entryDx=0;entryDy=0;" edge="1" parent="1" source="bekIhtNGK7He6cLQGkpx-60" target="bekIhtNGK7He6cLQGkpx-60">
          <mxGeometry width="50" height="50" relative="1" as="geometry">
            <mxPoint x="780" y="480" as="sourcePoint" />
            <mxPoint x="1040" y="484" as="targetPoint" />
          </mxGeometry>
        </mxCell>
        <mxCell id="bekIhtNGK7He6cLQGkpx-59" value="" style="endArrow=classic;html=1;rounded=0;" edge="1" parent="1">
          <mxGeometry width="50" height="50" relative="1" as="geometry">
            <mxPoint x="1032.5" y="680" as="sourcePoint" />
            <mxPoint x="602.5" y="680" as="targetPoint" />
          </mxGeometry>
        </mxCell>
        <mxCell id="bekIhtNGK7He6cLQGkpx-60" value="请求access-token，&lt;br&gt;openid" style="text;html=1;strokeColor=none;fillColor=none;align=center;verticalAlign=middle;whiteSpace=wrap;rounded=0;" vertex="1" parent="1">
          <mxGeometry x="860" y="580" width="170" height="40" as="geometry" />
        </mxCell>
        <mxCell id="bekIhtNGK7He6cLQGkpx-61" value="返回access-token，&lt;br&gt;用户是否注册" style="text;html=1;strokeColor=none;fillColor=none;align=center;verticalAlign=middle;whiteSpace=wrap;rounded=0;" vertex="1" parent="1">
          <mxGeometry x="592.5" y="650" width="192.5" height="30" as="geometry" />
        </mxCell>
        <mxCell id="bekIhtNGK7He6cLQGkpx-67" value="完成登录、&lt;br&gt;判断是否跳转注册" style="text;html=1;strokeColor=none;fillColor=none;align=center;verticalAlign=middle;whiteSpace=wrap;rounded=0;" vertex="1" parent="1">
          <mxGeometry x="492.5" y="660" width="100" height="30" as="geometry" />
        </mxCell>
      </root>
    </mxGraphModel>
  </diagram>
</mxfile>
